<svg width="153" height="40" viewBox="0 0 153 40" fill="none" xmlns="http://www.w3.org/2000/svg">
<path d="M50.454 22.4489H52.8063L53.9888 23.9702L55.1522 25.3253L57.3447 28.0739H54.7623L53.2537 26.2202L52.4803 25.1207L50.454 22.4489ZM57.5428 20.4545C57.5428 21.8821 57.2722 23.0966 56.731 24.098C56.1941 25.0994 55.4611 25.8643 54.5322 26.3928C53.6074 26.9169 52.5677 27.179 51.4128 27.179C50.2495 27.179 49.2055 26.9148 48.2807 26.3864C47.356 25.858 46.6252 25.093 46.0883 24.0916C45.5513 23.0902 45.2829 21.8778 45.2829 20.4545C45.2829 19.027 45.5513 17.8125 46.0883 16.8111C46.6252 15.8097 47.356 15.0469 48.2807 14.5227C49.2055 13.9943 50.2495 13.7301 51.4128 13.7301C52.5677 13.7301 53.6074 13.9943 54.5322 14.5227C55.4611 15.0469 56.1941 15.8097 56.731 16.8111C57.2722 17.8125 57.5428 19.027 57.5428 20.4545ZM54.7367 20.4545C54.7367 19.5298 54.5982 18.75 54.3212 18.1151C54.0485 17.4801 53.6628 16.9986 53.1643 16.6705C52.6657 16.3423 52.0819 16.1783 51.4128 16.1783C50.7438 16.1783 50.16 16.3423 49.6614 16.6705C49.1628 16.9986 48.7751 17.4801 48.4981 18.1151C48.2253 18.75 48.089 19.5298 48.089 20.4545C48.089 21.3793 48.2253 22.1591 48.4981 22.794C48.7751 23.429 49.1628 23.9105 49.6614 24.2386C50.16 24.5668 50.7438 24.7308 51.4128 24.7308C52.0819 24.7308 52.6657 24.5668 53.1643 24.2386C53.6628 23.9105 54.0485 23.429 54.3212 22.794C54.5982 22.1591 54.7367 21.3793 54.7367 20.4545ZM66.419 13.9091H69.1867V22.4105C69.1867 23.3651 68.9588 24.2003 68.5028 24.9162C68.0511 25.6321 67.4183 26.1903 66.6044 26.5909C65.7904 26.9872 64.8423 27.1854 63.7599 27.1854C62.6733 27.1854 61.723 26.9872 60.9091 26.5909C60.0951 26.1903 59.4623 25.6321 59.0106 24.9162C58.5589 24.2003 58.3331 23.3651 58.3331 22.4105V13.9091H61.1008V22.174C61.1008 22.6726 61.2095 23.1158 61.4268 23.5036C61.6484 23.8913 61.9595 24.196 62.36 24.4176C62.7606 24.6392 63.2272 24.75 63.7599 24.75C64.2968 24.75 64.7635 24.6392 65.1598 24.4176C65.5603 24.196 65.8693 23.8913 66.0866 23.5036C66.3082 23.1158 66.419 22.6726 66.419 22.174V13.9091ZM72.4603 27H69.4944L74.0136 13.9091H77.5803L82.0931 27H79.1272L75.8481 16.9006H75.7458L72.4603 27ZM72.2749 21.8544H79.2806V24.0149H72.2749V21.8544ZM76.8005 12.5028H74.7806L74.64 11.3523C75.0917 11.331 75.4134 11.2713 75.6052 11.1733C75.797 11.071 75.8907 10.9368 75.8864 10.7706C75.8907 10.5405 75.7693 10.3849 75.5221 10.304C75.2792 10.223 74.9745 10.1825 74.608 10.1825L74.6783 8.94886C75.8161 8.94886 76.6812 9.10227 77.2735 9.40909C77.8701 9.71591 78.1663 10.142 78.162 10.6875C78.1663 11.0753 78.0256 11.3693 77.7401 11.5696C77.4589 11.7656 77.1457 11.8892 76.8005 11.9403V12.5028ZM93.3583 13.9091V27H90.9677L85.2724 18.7607H85.1765V27H82.4088V13.9091H84.8377L90.4883 22.142H90.6034V13.9091H93.3583ZM97.2911 27V13.9091H100.059V24.718H105.671V27H97.2911ZM103.807 13.9091H106.907L109.892 19.5469H110.02L113.005 13.9091H116.105L111.33 22.3722V27H108.582V22.3722L103.807 13.9091ZM108.978 12.6435L110.333 9.73509H112.852L110.902 12.6435H108.978ZM118.764 16.1911V13.9091H129.516V16.1911H125.508V27H122.772V16.1911H118.764ZM130.683 27H127.717L132.237 13.9091H135.803L140.316 27H137.35L134.071 16.9006H133.969L130.683 27ZM130.498 21.8544H137.504V24.0149H130.498V21.8544ZM133.074 12.6435L131.124 9.73509H133.636L134.998 12.6435H133.074ZM148.718 13.9091H151.485V22.4105C151.485 23.3651 151.257 24.2003 150.801 24.9162C150.35 25.6321 149.717 26.1903 148.903 26.5909C148.089 26.9872 147.141 27.1854 146.059 27.1854C144.972 27.1854 144.022 26.9872 143.208 26.5909C142.394 26.1903 141.761 25.6321 141.309 24.9162C140.858 24.2003 140.632 23.3651 140.632 22.4105V13.9091H143.399V22.174C143.399 22.6726 143.508 23.1158 143.725 23.5036C143.947 23.8913 144.258 24.196 144.659 24.4176C145.059 24.6392 145.526 24.75 146.059 24.75C146.596 24.75 147.062 24.6392 147.458 24.4176C147.859 24.196 148.168 23.8913 148.385 23.5036C148.607 23.1158 148.718 22.6726 148.718 22.174V13.9091Z" fill="white"/>
<g clip-path="url(#clip0_16_45)">
<path d="M20 40C31.0457 40 40 31.0457 40 20C40 8.9543 31.0457 0 20 0C8.9543 0 0 8.9543 0 20C0 31.0457 8.9543 40 20 40Z" fill="#04B4FF"/>
<path d="M27.3185 22.4312C26.961 22.4312 26.6258 22.4312 26.2897 22.4312C26.0488 22.4312 25.8233 22.4073 25.6956 22.1542C25.5678 21.901 25.6741 21.6984 25.8199 21.4966C26.6112 20.4044 27.3974 19.3079 28.1879 18.2149C28.5196 17.7564 28.9775 17.7405 29.3195 18.1901C30.1717 19.3097 31.0136 20.4381 31.8598 21.5621C31.9944 21.7391 32.0502 21.9302 31.9456 22.1444C31.841 22.3586 31.6652 22.4338 31.4457 22.4338H30.3038C30.074 23.3374 29.936 24.2216 29.6265 25.0376C28.1613 28.9087 25.4315 31.2709 21.4423 31.8736C17.784 32.4267 14.6899 31.1514 12.2388 28.3034C10.8773 26.7227 10.0954 24.8447 9.84766 22.7392C9.82022 22.502 9.75164 22.4108 9.51501 22.4259C9.1978 22.4471 8.87801 22.4338 8.55994 22.4338C8.32931 22.4338 8.14413 22.3453 8.04553 22.1249C7.94694 21.9046 8.02067 21.7223 8.15013 21.5435C8.95088 20.4337 9.74735 19.3194 10.5507 18.2113C10.879 17.7582 11.3531 17.7511 11.6884 18.1936C12.5311 19.3079 13.3679 20.4266 14.2107 21.5417C14.3453 21.7187 14.4121 21.9072 14.3204 22.1223C14.2287 22.3374 14.034 22.4312 13.806 22.4303H12.6915C12.8262 23.5232 13.1953 24.5714 13.7717 25.4987C14.6617 26.9633 16.0118 28.068 17.5963 28.6282C18.1501 28.8282 18.5394 28.5397 18.5394 27.9343C18.5394 24.3287 18.5411 20.7231 18.5445 17.1174C18.5445 16.9156 18.4819 16.828 18.3019 16.7484C16.5015 15.9518 15.4006 14.0172 15.6347 12.0577C15.8833 9.98317 17.3785 8.36621 19.335 8.0538C21.5186 7.70509 23.6371 9.08398 24.2484 11.2505C24.5601 12.3213 24.4783 13.473 24.0188 14.4854C23.5593 15.4978 22.7543 16.2998 21.7578 16.7377C21.5598 16.8263 21.4869 16.9236 21.4869 17.1502C21.4943 20.7062 21.4963 24.262 21.4929 27.8175C21.4929 28.5813 21.8701 28.8618 22.5543 28.5839C25.1657 27.5219 26.745 25.5642 27.3048 22.7285C27.3144 22.6297 27.319 22.5305 27.3185 22.4312ZM21.474 12.5675C21.4766 12.3686 21.441 12.1711 21.3692 11.9865C21.2974 11.8019 21.1908 11.6338 21.0557 11.492C20.9205 11.3502 20.7595 11.2374 20.5819 11.1603C20.4042 11.0831 20.2136 11.0431 20.0208 11.0426C19.8277 11.0407 19.6361 11.0781 19.4571 11.1528C19.278 11.2274 19.1149 11.3377 18.9771 11.4775C18.8394 11.6172 18.7297 11.7836 18.6542 11.9671C18.5788 12.1507 18.5392 12.3478 18.5376 12.5471C18.538 12.9485 18.6909 13.3337 18.9634 13.62C19.2359 13.9063 19.6064 14.0708 19.9951 14.0782C20.1885 14.0799 20.3802 14.042 20.5594 13.9669C20.7385 13.8917 20.9015 13.7807 21.0389 13.6403C21.1764 13.4999 21.2856 13.3329 21.3602 13.1488C21.4349 12.9646 21.4736 12.7671 21.474 12.5675Z" fill="white"/>
</g>
<defs>
<clipPath id="clip0_16_45">
<rect width="40" height="40" fill="white"/>
</clipPath>
</defs>
</svg>
